<?xml version="1.0" encoding="utf-8"?>
<!-- Generator: Adobe Illustrator 22.0.0, SVG Export Plug-In . SVG Version: 6.00 Build 0)  -->
<svg version="1.1" id="Layer_1" xmlns="http://www.w3.org/2000/svg" xmlns:xlink="http://www.w3.org/1999/xlink" x="0px" y="0px"
	 viewBox="0 0 96 96" xml:space="preserve">
<style type="text/css">
	.st0{fill:#FEB139;}
</style>
<title></title>
<g>
	<path class="st0" d="M24.8,25.4c-2.5-2.1-6.3-1.8-8.4,0.8l-15,18c-1.9,2.2-1.9,5.5,0,7.7l15,18c2.1,2.6,5.9,2.9,8.4,0.8
		c2.6-2.1,2.9-5.9,0.8-8.4c0,0,0,0,0-0.1L13.8,48l11.8-14.2C27.7,31.3,27.4,27.5,24.8,25.4z"/>
	<path class="st0" d="M55.2,12.1c-3.2-0.6-6.4,1.5-7.1,4.7l-12,60c-0.7,3.2,1.4,6.4,4.7,7c0,0,0,0,0,0C41.2,84,41.6,84,42,84
		c2.9,0,5.3-2,5.9-4.8l12-60C60.5,15.9,58.4,12.8,55.2,12.1C55.2,12.1,55.2,12.1,55.2,12.1z"/>
	<path class="st0" d="M94.6,44.2l-15-18c-2.1-2.6-5.9-2.9-8.4-0.8c-2.6,2.1-2.9,5.9-0.8,8.4c0,0,0,0,0,0.1L82.2,48L70.4,62.2
		c-2.1,2.5-1.8,6.3,0.7,8.5s6.3,1.8,8.5-0.7c0,0,0,0,0-0.1l15-18C96.5,49.6,96.5,46.4,94.6,44.2z"/>
</g>
</svg>
