<?xml version="1.0" encoding="utf-8"?>
<!-- Generator: Adobe Illustrator 22.0.0, SVG Export Plug-In . SVG Version: 6.00 Build 0)  -->
<svg version="1.1" id="Layer_1" xmlns="http://www.w3.org/2000/svg" xmlns:xlink="http://www.w3.org/1999/xlink" x="0px" y="0px"
	 viewBox="0 0 48 48" style="enable-background:new 0 0 48 48;" xml:space="preserve">
<style type="text/css">
	.st0{fill:#FEB139;}
</style>
<path class="st0" d="M46.4,6.7c-5.9,8.8-23.8,26.7-23.8,26.7l0,0c0,0-0.1,0.1-0.1,0.1c-1.1,1.1-2.6,1.6-4.1,1.4c0.5,2,0,4.1-1.5,5.7
	c0,0-7.5,9.3-15.9,3.4c0,0,4.5-1.3,4.9-4.9c0,0-0.6-3.7,2.7-7c1.5-1.5,3.5-2,5.4-1.6c-0.2-1.4,0.3-2.9,1.4-4c0,0,0.1-0.1,0.1-0.1
	l0,0c0,0,17.9-17.9,26.7-23.8c1.2-0.8,2.8-0.7,3.9,0.3C47.2,3.9,47.3,5.6,46.4,6.7z M15.5,33.5c-0.7-0.7-1.7-1.2-2.7-1.2
	c-1,0-2,0.4-2.7,1.2c-2.5,2.6-2.2,5.6-2.1,5.7c-0.2,2-1.4,3.7-2.6,4.8c0.4,0.1,0.8,0.1,1.3,0.1c4.8,0,8.8-4.7,8.8-4.7
	C15.4,39.4,18.1,36.1,15.5,33.5z M16,30c0,0.8,0.3,1.5,0.9,2.1c0.6,0.6,1.3,0.9,2.1,0.9s1.5-0.3,2.1-0.9l1.6-1.6
	c0.1-0.1,0.2-0.2,0.3-0.3l-4.2-4.2c-0.1,0.1-0.2,0.2-0.3,0.3l-1.6,1.5C16.3,28.5,16,29.2,16,30z M44.7,4.3C44.5,4,44.2,4,44,4
	c-0.2,0-0.4,0.1-0.6,0.2c-6.2,4.2-18,15.4-23.3,20.5l4.2,4.2c5.1-5.3,16.4-17.1,20.6-23.3C45.1,5.2,45.1,4.6,44.7,4.3z"/>
</svg>
